<?xml version="1.0" standalone="no"?>
<!DOCTYPE svg PUBLIC "-//W3C//DTD SVG 20010904//EN"
 "http://www.w3.org/TR/2001/REC-SVG-20010904/DTD/svg10.dtd">
<svg version="1.0" xmlns="http://www.w3.org/2000/svg"
 width="276.000000pt" height="276.000000pt" viewBox="0 0 276.000000 276.000000"
 preserveAspectRatio="xMidYMid meet">
<metadata>
Created by potrace 1.14, written by Peter Selinger 2001-2017
</metadata>
<g transform="translate(0.000000,276.000000) scale(0.100000,-0.100000)"
fill="#000000" stroke="none">
<path d="M867 2514 c-1 -1 -24 -4 -52 -7 -47 -5 -62 -8 -102 -24 -10 -3 -22
-7 -28 -8 -22 -5 -135 -77 -135 -85 0 -6 -6 -10 -14 -10 -8 0 -21 -9 -29 -20
-8 -11 -16 -17 -19 -14 -3 3 -18 -6 -33 -20 -15 -14 -31 -23 -35 -21 -4 3 -11
-2 -14 -11 -3 -8 -10 -13 -15 -10 -5 4 -11 2 -13 -4 -1 -5 -15 -11 -30 -12
-16 -1 -28 -7 -28 -12 0 -5 -3 -7 -6 -3 -10 10 -112 -58 -185 -123 -82 -73
-120 -140 -120 -212 -1 -26 2 -52 6 -57 3 -6 8 -46 11 -88 3 -43 6 -87 8 -98
2 -11 7 -38 11 -60 27 -159 60 -304 78 -339 11 -23 52 -88 91 -146 40 -58 100
-151 134 -208 35 -56 73 -112 86 -125 31 -31 102 -87 111 -87 4 0 50 -26 103
-57 54 -32 102 -60 107 -63 6 -3 29 -18 53 -33 70 -46 256 -126 293 -127 3 0
19 12 34 26 19 18 41 27 66 28 20 0 35 -2 33 -5 -2 -3 18 -5 44 -5 26 1 50 -3
54 -9 5 -6 8 -5 8 3 0 9 5 10 19 3 10 -6 21 -7 25 -4 3 3 6 1 6 -6 0 -7 5 -9
10 -6 6 4 42 -10 81 -30 39 -20 73 -34 76 -31 3 3 17 -3 31 -14 13 -11 28 -17
33 -14 5 3 9 0 9 -6 0 -7 6 -10 12 -7 7 2 19 -3 26 -12 8 -9 11 -10 7 -3 -3 6
-4 12 0 12 6 0 47 -22 55 -30 3 -3 23 -11 45 -19 22 -8 43 -18 46 -24 4 -5 21
-10 38 -11 17 0 31 -3 31 -7 0 -7 49 -4 78 6 12 4 22 12 22 17 0 5 5 6 12 2 6
-4 8 -3 4 4 -3 6 2 15 11 21 10 6 14 11 9 11 -5 0 -3 7 4 15 7 8 9 15 5 15 -5
0 -1 8 7 18 8 9 19 31 23 47 17 61 25 74 41 68 8 -3 14 0 14 6 0 6 7 11 15 11
20 0 74 30 102 55 41 38 53 46 53 35 0 -5 4 -10 10 -10 5 0 6 7 3 17 -5 12 -3
14 8 8 17 -11 49 -14 49 -5 0 4 6 7 13 8 23 2 42 8 57 17 8 5 21 10 29 12 8 1
17 5 20 10 3 4 13 9 21 11 8 2 17 8 18 13 2 5 10 9 18 9 8 0 14 5 14 10 0 6 7
10 15 10 8 0 20 9 27 20 7 11 20 20 28 20 13 0 13 1 0 10 -13 9 -13 10 0 10 9
0 24 15 35 33 10 17 25 36 32 40 7 5 11 13 7 18 -3 5 -1 16 6 23 6 8 13 23 15
35 3 12 7 31 11 43 9 40 11 129 2 134 -5 3 -4 12 2 19 7 8 7 15 1 19 -5 3 -8
17 -6 31 1 14 -1 25 -4 25 -4 0 -13 20 -20 45 -7 25 -17 45 -22 45 -5 0 -9 5
-9 10 0 6 -16 35 -36 65 -20 29 -33 58 -30 64 4 5 -3 13 -15 16 -11 4 -18 9
-15 12 6 6 -60 73 -72 73 -5 0 -17 8 -28 18 -31 28 -140 76 -154 67 -5 -3 -11
-1 -15 4 -7 12 -196 11 -212 -1 -7 -5 -14 -5 -18 2 -4 7 -12 7 -26 0 -13 -8
-19 -7 -19 0 0 6 -4 9 -9 5 -5 -3 -17 2 -25 11 -9 8 -16 12 -16 9 0 -4 -32 26
-70 67 -135 140 -164 168 -182 174 -10 3 -18 9 -18 14 0 5 -16 14 -35 20 -19
6 -35 16 -35 21 0 5 -3 8 -7 7 -9 -3 -52 20 -69 36 -7 6 -26 22 -44 36 -40 31
-60 52 -61 65 -2 12 -34 94 -60 151 -23 53 -199 234 -199 206 0 -4 -4 -2 -8 4
-9 13 -71 44 -89 44 -7 0 -13 5 -13 10 0 6 -11 10 -24 10 -12 0 -36 5 -52 10
-25 9 -140 20 -147 14z"/>
</g>
</svg>
